PathFileType	4	(X/Y/Z)	TVC_4_BWA_8_walk_RCNL2025.trc
DataRate	CameraRate	NumFrames	NumMarkers	Units	OrigDataRate	OrigDataStartFrame	OrigNumFrames
100	100	5	27	mm	100	74	294
Frame#	Time	R_Shoulder			L_Shoulder			C7			J_Notch			R_Elbow			L_Elbow			R_Wrist			L_Wrist			R_Asis			L_Asis			R_Psis			L_Psis			Sacral			Thoracic			Sternum			R_Thigh_Lateral			R_Knee_Lateral			R_Shank_Lateral			R_Ankle_Lateral			R_Heel			R_Toe			L_Thigh_Lateral			L_Knee_Lateral			L_Shank_Lateral			L_Ankle_Lateral			L_Heel			L_Toe		
		X1	Y1	Z1	X2	Y2	Z2	X3	Y3	Z3	X4	Y4	Z4	X5	Y5	Z5	X6	Y6	Z6	X7	Y7	Z7	X8	Y8	Z8	X9	Y9	Z9	X10	Y10	Z10	X11	Y11	Z11	X12	Y12	Z12	X13	Y13	Z13	X14	Y14	Z14	X15	Y15	Z15	X16	Y16	Z16	X17	Y17	Z17	X18	Y18	Z18	X19	Y19	Z19	X20	Y20	Z20	X21	Y21	Z21	X22	Y22	Z22	X23	Y23	Z23	X24	Y24	Z24	X25	Y25	Z25	X26	Y26	Z26	X27	Y27	Z27
74	0.73000000	-794.602051	1288.616699	374.186279	-802.209290	1301.649658	-8.170512	-855.550049	1361.283447	199.059296	-711.518494	1244.035522	171.780014	-782.826904	974.055847	447.361237	-901.368835	987.605347	-56.312607	-629.238220	802.070526	415.489960	-875.237793	776.157898	-71.166210	-783.645081	844.187500	353.241974	-823.032288	844.141052	6.811586	-942.000732	881.186279	247.611588	-949.317261	879.631653	155.409775	-945.658997	880.408966	201.510681	-937.581604	1113.760010	198.695007	-673.576721	1055.077393	166.026611	-817.884033	492.607574	359.078247	-859.772888	410.995911	307.481659	-959.921936	269.259216	374.634583	-1093.409790	101.801437	285.308105	-1141.004150	121.442787	244.479553	-991.129211	38.871155	249.305786	-713.600830	504.792023	4.067046	-699.250122	423.817810	53.490761	-683.298157	301.761017	10.261088	-673.851868	53.086468	99.348145	-715.915405	43.862720	149.760086	-537.696411	40.966312	109.614746
75	0.74000000	-785.601501	1289.851562	372.596802	-792.653870	1302.298706	-9.719475	-846.296204	1362.166870	197.283279	-702.153748	1244.996460	170.335846	-776.378357	975.141296	445.631592	-890.370850	987.827637	-58.080647	-623.886230	801.955994	413.742126	-862.112671	776.536102	-72.834213	-774.015015	844.627930	352.027618	-813.709473	846.391296	6.031904	-932.618225	881.977295	246.968033	-939.902222	880.874329	154.664490	-936.260223	881.425812	200.816261	-928.196045	1114.619629	197.346100	-663.978333	1056.269653	164.896347	-801.455688	492.382080	358.665405	-842.562622	410.961761	307.601532	-947.241150	274.031677	375.463776	-1085.777832	109.972076	286.896912	-1131.914307	132.541458	246.186447	-989.443726	39.531940	249.473618	-706.148987	505.686523	3.620737	-692.903564	424.451599	53.098438	-679.326050	302.079620	9.904603	-673.700439	53.106792	99.383675	-715.869141	44.163834	149.698059	-537.441467	40.436726	109.892517
76	0.75000000	-776.541077	1291.203491	371.051849	-783.047974	1303.064331	-11.211460	-836.983643	1363.173096	195.554077	-692.777710	1246.022827	168.937576	-770.088867	976.337158	443.889191	-879.256836	988.144348	-59.884380	-618.990601	801.718781	412.028915	-848.520325	777.072754	-74.499958	-764.616577	845.228088	350.852051	-804.463257	848.624268	5.192373	-923.376038	882.927856	246.271332	-930.616333	882.263123	153.879044	-926.996185	882.595490	200.075188	-918.843506	1115.633789	196.028290	-654.466370	1057.483154	163.832703	-784.437378	492.367889	358.516754	-824.780029	411.027740	308.039673	-933.511902	279.111816	376.584869	-1076.908813	118.464035	288.740784	-1121.454834	143.916809	248.140320	-986.884888	40.620960	249.821838	-700.122131	506.118317	2.998430	-687.559143	424.872833	52.574810	-676.655457	302.166077	9.561989	-673.593872	53.150066	99.417900	-715.815491	44.362881	149.663864	-537.271606	40.279770	110.098228
77	0.76000000	-767.435364	1292.632446	369.566254	-773.393555	1303.922241	-12.634585	-827.619812	1364.278198	193.885559	-683.397400	1247.088745	167.598541	-763.934204	977.608643	442.148315	-868.034058	988.534180	-61.719154	-614.522522	801.349945	410.361115	-834.485809	777.758392	-76.153984	-755.454956	845.966980	349.730896	-795.261780	850.755188	4.283161	-914.280029	884.014343	245.518936	-921.465576	883.766846	153.052765	-917.872803	883.890594	199.285851	-909.531616	1116.778809	194.743866	-645.046814	1058.683594	162.846191	-767.068604	492.627136	358.603821	-806.634705	411.218781	308.756470	-918.857605	284.326965	377.944489	-1066.758057	127.048782	290.776733	-1109.676880	155.180359	250.255798	-983.048096	42.257980	250.460693	-695.315918	506.179871	2.214868	-683.083130	425.101135	51.928036	-675.018066	302.052032	9.233506	-673.514404	53.199139	99.449753	-715.757141	44.478561	149.649307	-537.164612	40.348049	110.228760
78	0.77000000	-758.299255	1294.098511	368.153412	-763.693054	1304.848633	-13.978643	-818.212463	1365.458252	192.290115	-674.019897	1248.169312	166.330582	-757.889648	978.920593	440.422180	-856.706909	988.975891	-63.580952	-610.452118	800.842255	408.749908	-820.040009	778.581604	-77.786846	-746.526123	846.823303	348.676575	-786.088928	852.717896	3.303823	-905.332886	885.212402	244.712280	-912.453918	885.354309	152.188065	-908.893402	885.283356	198.450172	-900.267090	1118.030518	193.494217	-635.723206	1059.840698	161.944489	-749.646912	493.226379	358.888550	-788.328430	411.570312	309.686646	-903.435913	289.511414	379.470856	-1055.299927	135.474976	292.916260	-1096.664185	165.928741	252.422806	-977.504578	44.506638	251.505554	-691.436340	505.992432	1.296804	-679.300415	425.172668	51.176617	-674.041809	301.786652	8.909088	-673.452393	53.241566	99.477295	-715.701904	44.533844	149.643372	-537.105347	40.521252	110.282158
